<mxfile host="Electron" modified="2023-04-15T20:18:03.353Z" agent="5.0 (Macintosh; Intel Mac OS X 13_2_1) AppleWebKit/537.36 (KHTML, like Gecko) draw.io/14.6.13 Chrome/89.0.4389.128 Electron/12.0.7 Safari/537.36" etag="9IGgx-rpb8IVQDDm8zss" compressed="false" version="14.6.13" type="device">
  <diagram id="8PI5glCoYeSU1P0FbpF8" name="main">
    <mxGraphModel dx="1690" dy="1255" grid="0" gridSize="10" guides="1" tooltips="1" connect="1" arrows="1" fold="1" page="0" pageScale="1" pageWidth="850" pageHeight="1100" math="0" shadow="0">
      <root>
        <mxCell id="0" />
        <mxCell id="1" parent="0" />
        <mxCell id="wzED7ktJJkokemNBI6Fu-51" style="edgeStyle=orthogonalEdgeStyle;rounded=1;orthogonalLoop=1;jettySize=auto;html=1;exitX=1;exitY=0.5;exitDx=0;exitDy=0;entryX=0;entryY=0.5;entryDx=0;entryDy=0;" parent="1" source="wzED7ktJJkokemNBI6Fu-29" target="wzED7ktJJkokemNBI6Fu-34" edge="1">
          <mxGeometry relative="1" as="geometry" />
        </mxCell>
        <mxCell id="Ygyi-dmetRk-7bIZP3Wp-1" style="edgeStyle=orthogonalEdgeStyle;rounded=1;orthogonalLoop=1;jettySize=auto;html=1;exitX=1;exitY=0.5;exitDx=0;exitDy=0;entryX=0;entryY=0.5;entryDx=0;entryDy=0;" edge="1" parent="1" source="wzED7ktJJkokemNBI6Fu-29" target="wzED7ktJJkokemNBI6Fu-39">
          <mxGeometry relative="1" as="geometry" />
        </mxCell>
        <mxCell id="wzED7ktJJkokemNBI6Fu-29" value="stdin" style="rhombus;whiteSpace=wrap;html=1;rounded=1;fillColor=#fa6800;fontColor=#000000;strokeColor=#C73500;fontStyle=1" parent="1" vertex="1">
          <mxGeometry x="67" y="250" width="80" height="80" as="geometry" />
        </mxCell>
        <mxCell id="wzED7ktJJkokemNBI6Fu-30" value="stdout" style="rhombus;whiteSpace=wrap;html=1;rounded=1;fillColor=#fa6800;fontColor=#000000;strokeColor=#C73500;fontStyle=1" parent="1" vertex="1">
          <mxGeometry x="895" y="245" width="80" height="80" as="geometry" />
        </mxCell>
        <mxCell id="wzED7ktJJkokemNBI6Fu-31" style="edgeStyle=orthogonalEdgeStyle;rounded=1;orthogonalLoop=1;jettySize=auto;html=1;exitX=1;exitY=0.5;exitDx=0;exitDy=0;endArrow=classic;endFill=1;" parent="1" source="wzED7ktJJkokemNBI6Fu-32" target="wzED7ktJJkokemNBI6Fu-35" edge="1">
          <mxGeometry relative="1" as="geometry" />
        </mxCell>
        <mxCell id="wzED7ktJJkokemNBI6Fu-32" value="A" style="rounded=1;whiteSpace=wrap;html=1;fillColor=#f0a30a;strokeColor=#BD7000;fontColor=#000000;fontStyle=1" parent="1" vertex="1">
          <mxGeometry x="444" y="200" width="120" height="60" as="geometry" />
        </mxCell>
        <mxCell id="wzED7ktJJkokemNBI6Fu-33" style="edgeStyle=orthogonalEdgeStyle;rounded=1;orthogonalLoop=1;jettySize=auto;html=1;exitX=1;exitY=0.5;exitDx=0;exitDy=0;entryX=0;entryY=0.5;entryDx=0;entryDy=0;endArrow=classic;endFill=1;" parent="1" source="wzED7ktJJkokemNBI6Fu-34" target="wzED7ktJJkokemNBI6Fu-32" edge="1">
          <mxGeometry relative="1" as="geometry" />
        </mxCell>
        <mxCell id="wzED7ktJJkokemNBI6Fu-34" value="stdin" style="ellipse;whiteSpace=wrap;html=1;rounded=1;fillColor=#f5f5f5;strokeColor=#666666;fontColor=#333333;" parent="1" vertex="1">
          <mxGeometry x="312" y="210" width="90" height="40" as="geometry" />
        </mxCell>
        <mxCell id="Ygyi-dmetRk-7bIZP3Wp-2" style="edgeStyle=orthogonalEdgeStyle;rounded=1;orthogonalLoop=1;jettySize=auto;html=1;exitX=1;exitY=0.5;exitDx=0;exitDy=0;entryX=0;entryY=0.5;entryDx=0;entryDy=0;" edge="1" parent="1" source="wzED7ktJJkokemNBI6Fu-35" target="wzED7ktJJkokemNBI6Fu-30">
          <mxGeometry relative="1" as="geometry" />
        </mxCell>
        <mxCell id="wzED7ktJJkokemNBI6Fu-35" value="stdout" style="ellipse;whiteSpace=wrap;html=1;rounded=1;fillColor=#f5f5f5;strokeColor=#666666;fontColor=#333333;" parent="1" vertex="1">
          <mxGeometry x="606" y="210" width="90" height="40" as="geometry" />
        </mxCell>
        <mxCell id="wzED7ktJJkokemNBI6Fu-36" style="edgeStyle=orthogonalEdgeStyle;rounded=1;orthogonalLoop=1;jettySize=auto;html=1;exitX=1;exitY=0.5;exitDx=0;exitDy=0;endArrow=classic;endFill=1;" parent="1" source="wzED7ktJJkokemNBI6Fu-37" target="wzED7ktJJkokemNBI6Fu-40" edge="1">
          <mxGeometry relative="1" as="geometry" />
        </mxCell>
        <mxCell id="wzED7ktJJkokemNBI6Fu-37" value="B" style="rounded=1;whiteSpace=wrap;html=1;fillColor=#f0a30a;strokeColor=#BD7000;fontColor=#000000;fontStyle=1" parent="1" vertex="1">
          <mxGeometry x="441" y="322" width="120" height="60" as="geometry" />
        </mxCell>
        <mxCell id="wzED7ktJJkokemNBI6Fu-38" style="edgeStyle=orthogonalEdgeStyle;rounded=1;orthogonalLoop=1;jettySize=auto;html=1;exitX=1;exitY=0.5;exitDx=0;exitDy=0;entryX=0;entryY=0.5;entryDx=0;entryDy=0;endArrow=classic;endFill=1;" parent="1" source="wzED7ktJJkokemNBI6Fu-39" target="wzED7ktJJkokemNBI6Fu-37" edge="1">
          <mxGeometry relative="1" as="geometry" />
        </mxCell>
        <mxCell id="wzED7ktJJkokemNBI6Fu-39" value="stdin" style="ellipse;whiteSpace=wrap;html=1;rounded=1;fillColor=#f5f5f5;strokeColor=#666666;fontColor=#333333;" parent="1" vertex="1">
          <mxGeometry x="309" y="332" width="90" height="40" as="geometry" />
        </mxCell>
        <mxCell id="wzED7ktJJkokemNBI6Fu-54" style="edgeStyle=orthogonalEdgeStyle;rounded=1;orthogonalLoop=1;jettySize=auto;html=1;exitX=1;exitY=0.5;exitDx=0;exitDy=0;entryX=0;entryY=0.5;entryDx=0;entryDy=0;" parent="1" source="wzED7ktJJkokemNBI6Fu-40" target="wzED7ktJJkokemNBI6Fu-30" edge="1">
          <mxGeometry relative="1" as="geometry" />
        </mxCell>
        <mxCell id="wzED7ktJJkokemNBI6Fu-40" value="stdout" style="ellipse;whiteSpace=wrap;html=1;rounded=1;fillColor=#f5f5f5;strokeColor=#666666;fontColor=#333333;" parent="1" vertex="1">
          <mxGeometry x="603" y="332" width="90" height="40" as="geometry" />
        </mxCell>
      </root>
    </mxGraphModel>
  </diagram>
</mxfile>
